<?xml version="1.0" standalone="no"?><!DOCTYPE svg PUBLIC "-//W3C//DTD SVG 1.1//EN" "http://www.w3.org/Graphics/SVG/1.1/DTD/svg11.dtd"><svg t="1618925489633" class="icon" viewBox="0 0 1024 1024" version="1.1" xmlns="http://www.w3.org/2000/svg" p-id="2467" xmlns:xlink="http://www.w3.org/1999/xlink" width="200" height="200"><defs><style type="text/css"></style></defs><path d="M177.6 804.8H56c-17.6 0-24-6.4-24-24V548.8c0-62.4 46.4-110.4 108.8-112h38.4v-12.8V128c0-40 22.4-62.4 60.8-62.4h377.6c40 0 73.6 14.4 102.4 41.6l81.6 81.6c27.2 28.8 41.6 62.4 41.6 100.8v144H880c52.8 1.6 96 35.2 108.8 84.8 1.6 9.6 3.2 19.2 3.2 30.4v228.8c0 17.6-6.4 25.6-24 25.6h-123.2v88c0 12.8-3.2 25.6-11.2 36.8-11.2 16-27.2 22.4-46.4 22.4H241.6c-38.4 0-60.8-22.4-60.8-60.8v-83.2c-3.2 1.6-3.2 0-3.2-1.6zM768 288H678.4c-19.2 0-35.2-6.4-48-22.4-8-11.2-11.2-24-11.2-36.8V142.4h-368v368h515.2c1.6-75.2 1.6-148.8 1.6-222.4z m0 444.8H252.8V880H768v-147.2z m112-222.4c-20.8 0-36.8 17.6-36.8 36.8 0 19.2 16 36.8 36.8 36.8 20.8 0 36.8-16 36.8-36.8 0-20.8-16-36.8-36.8-36.8z" fill="" p-id="2468"></path></svg>