<?xml version="1.0" standalone="no"?><!DOCTYPE svg PUBLIC "-//W3C//DTD SVG 1.1//EN" "http://www.w3.org/Graphics/SVG/1.1/DTD/svg11.dtd"><svg t="1618928338597" class="icon" viewBox="0 0 1024 1024" version="1.1" xmlns="http://www.w3.org/2000/svg" p-id="3395" xmlns:xlink="http://www.w3.org/1999/xlink" width="200" height="200"><defs><style type="text/css"></style></defs><path d="M882.3 267.3L699.5 84.6c-22.5-22.5-53-35.1-84.8-35.1H232.6c-69.6 0-126.1 56.5-126.1 126.1v672.8c0 69.6 56.5 126.1 126.1 126.1h558.8c69.6 0 126.1-56.5 126.1-126.1V352.2c0-31.8-12.7-62.3-35.2-84.9z m-90.9 627.2H232.6c-25.5 0-46.1-20.6-46.1-46.1V175.6c0-25.5 20.6-46.1 46.1-46.1h382c10.7 0 20.7 4.2 28.3 11.7l182.9 182.7c7.6 7.6 11.7 17.6 11.7 28.3v496.2c0 25.5-20.6 46.1-46.1 46.1z" fill="" p-id="3396"></path><path d="M582.5 210.3v129.8c0 12.4 10 22.4 22.4 22.4h130.3c20 0 29.9-24.2 15.8-38.2L620.7 194.4c-14.1-14-38.2-4-38.2 15.9zM317 606.5h233c22 0 40-18 40-40s-18-40-40-40H317c-22 0-40 18-40 40s18 40 40 40zM673 687.5H317c-22 0-40 18-40 40s18 40 40 40h356c22 0 40-18 40-40s-18-40-40-40z" fill="" p-id="3397"></path></svg>