<?xml version="1.0" standalone="no"?><!DOCTYPE svg PUBLIC "-//W3C//DTD SVG 1.1//EN" "http://www.w3.org/Graphics/SVG/1.1/DTD/svg11.dtd"><svg t="1618994147867" class="icon" viewBox="0 0 1024 1024" version="1.1" xmlns="http://www.w3.org/2000/svg" p-id="10641" xmlns:xlink="http://www.w3.org/1999/xlink" width="200" height="200"><defs><style type="text/css"></style></defs><path d="M511.694164 0c-11.619205 0-22.752143 4.504361-30.967484 12.489365-8.189748 8.010597-12.796481 18.862013-12.796481 30.174103v110.25448l-49.061708-47.78206a44.275824 44.275824 0 0 0-30.967484-12.540552c-11.593612 0-22.752143 4.504361-30.967484 12.540552a41.895679 41.895679 0 0 0 0 60.271425l110.996676 108.18145v164.383595l-146.033441-82.179001L281.280728 208.019595a43.149734 43.149734 0 0 0-30.865112-31.146635 44.531754 44.531754 0 0 0-42.919397 11.209717 41.895679 41.895679 0 0 0-10.723452 42.049237l17.940667 65.338832L116.717983 240.317913c-20.781485-10.493114-46.374447-3.224713-58.096024 16.558646-11.721577 19.757767-5.374522 45.043613 14.332059 57.328235l97.969858 55.178426-67.027967 17.505586c-23.340781 6.091125-37.186574 29.483092-30.941891 52.235235 6.270276 22.777736 30.276474 36.265227 53.617255 30.174102l151.587113-39.592312L424.166234 511.859239l-146.007848 82.204593-151.587113-39.541126c-22.905701-4.990628-45.811402 8.496863-51.876934 30.609183-6.065532 22.086726 6.807728 44.941241 29.20157 51.800155l67.05356 17.479993L72.954018 709.56487A42.228387 42.228387 0 0 0 52.735578 757.551673c5.118592 18.631676 22.393842 31.581715 42.177201 31.632901 7.421959 0 14.920697-1.842693 21.830797-5.70723l97.969858-55.152833-17.915074 65.338832c-4.606733 14.895104-0.563045 31.069856 10.62108 42.177201a44.531754 44.531754 0 0 0 43.021769 11.23531 43.149734 43.149734 0 0 0 30.839519-31.351378l40.641623-147.722577 146.033441-82.230186v171.677588l-110.971083 108.130265a41.972458 41.972458 0 0 0-9.392617 46.451226 43.866337 43.866337 0 0 0 40.334508 26.411936c11.619205 0 22.777736-4.478768 30.967484-12.514958l49.061708-47.858839v103.011672c0 23.545525 19.578616 42.663468 43.763965 42.663467 24.159756 0 43.763965-19.09235 43.763965-42.663467v-103.011672l49.036115 47.858839c8.189748 8.03619 19.348279 12.540551 30.967484 12.540551 11.619205 0 22.777736-4.504361 30.967484-12.540551a41.972458 41.972458 0 0 0 0-60.348204l-110.971083-108.130265v-171.677588l152.534053 85.864387 40.616031 147.696983c3.506236 15.304591 15.355777 27.512434 30.813926 31.786459a44.557347 44.557347 0 0 0 43.328884-11.337682c11.209717-11.260903 15.202219-27.56362 10.390743-42.535503l-17.940666-65.262053 91.469246 51.441854c20.781485 10.493114 46.374447 3.224713 58.096023-16.558647 11.695984-19.757767 5.374522-45.043613-14.332058-57.328234l-91.469246-51.467447 66.976781-17.505586a43.252106 43.252106 0 0 0 30.967484-30.174102 41.972458 41.972458 0 0 0-11.337682-41.204669 44.557347 44.557347 0 0 0-42.279573-11.056159l-151.535928 39.566719L599.222094 511.859239l152.534053-85.864388 151.510335 39.592313c23.366374 6.065532 47.34698-7.421959 53.668441-30.174103 6.244683-22.777736-7.626703-46.14411-30.967484-52.235235l-67.002374-17.505586 91.443653-51.467446A42.484317 42.484317 0 0 0 972.54663 277.171778a42.484317 42.484317 0 0 0-21.958762-37.058609 44.736497 44.736497 0 0 0-43.917522 0.179151l-91.469246 51.493039 17.940666-65.364425c5.041814-22.29147-8.829572-44.531754-31.479343-50.418135-22.598585-5.886381-45.990553 6.602984-53.05421 28.382595l-40.616031 147.696983-152.534053 85.864388V273.588763l110.971083-108.18145a41.895679 41.895679 0 0 0-0.025593-60.322611 44.557347 44.557347 0 0 0-61.909375 0l-49.036115 47.833246V42.663468c0-11.312089-4.606733-22.163505-12.822074-30.174103A44.352603 44.352603 0 0 0 511.668571 0" fill="#48AFFF" p-id="10642"></path></svg>